<svg xmlns="http://www.w3.org/2000/svg" version="1.1" baseProfile="full" viewBox="0 0 100 100" preserveAspectRatio="xMidYMid meet">
    <path d="M 50,25
             A 20,22 0 1 1 79,46
             L 74,41
             A 12,14 0 1 0 57,28
             A 3,3 0 0 1 43,28
             A 12,14 0 1 0 26,41
             L 21,46
             A 20,22 0 1 1 50,25"
          stroke="black"
          stroke-width="1"
          fill="#007B8B" />
    <path d="M 50,40
             C 30,31 35,30 5,60
             C 25,60 35,40 50,40
             C 70,31 65,30 95,60
             C 75,65 65,40 50,40
             V 45
             A 62,60 0 0 1 10,75
             A 65,60 0 0 1 50,45
             A 60,65 0 0 1 90,92
             A 71,75 0 0 1 50,45
             V 53
             A 60,45 0 0 1 37,92
             A 60,45 0 0 1 50,53"
          stroke="black"
          stroke-width="1"
          fill="#007B8B" />
</svg>